#!OML:ASF H:\BreakDance\Project 1\Capture day 1\Session 1\Male.ASF
:FULLY-SPECIFIED
:DEGREES
150
root 15.846 15.6973 4.84051 3.62483 -23.0217 4.48119
lowerback 0.675175 -4.68483 -3.35131
upperback 2.13412 -6.22561 -0.766873
thorax 2.08726 -3.16367 0.988825
lowerneck 3.1778 -12.3695 -9.74007
upperneck -6.5419 -16.5673 9.95376
head -0.803829 -8.36391 4.51966
rclavicle 1.59028e-014 -9.64106e-015
rhumerus -3.85112 28.4553 -88.1316
rradius 64.4289
rwrist 1.34028
rhand -37.2763 -16.2309
rfingers 7.12502
rthumb -10.3412 -45.9567
lclavicle 1.59028e-014 -9.64106e-015
lhumerus 12.3321 -52.0808 91.5022
lradius 37.1826
lwrist -4.44419
lhand -25.6862 -34.1853
lfingers 7.12502
lthumb 0.848845 -4.20722
rfemur -42.6946 3.27066 16.4088
rtibia 57.0184
rfoot -12.707 5.32937
rtoes -7.38655
lfemur -9.34732 6.9882 -6.68778
ltibia 48.6017
lfoot -26.1525 6.67138
ltoes -26.1925
151
root 15.8984 15.6343 4.82772 3.58461 -22.2258 4.18789
lowerback 0.687462 -4.63954 -3.07415
upperback 2.01801 -6.17108 -0.596175
thorax 1.94729 -3.13038 1.02028
lowerneck 3.21921 -12.5366 -10.1618
upperneck -6.74811 -16.805 10.0305
head -0.807646 -8.47554 4.60044
rclavicle 4.74288e-014 -7.70291e-015
rhumerus -4.099 28.1534 -87.9141
rradius 64.0756
rwrist 1.06915
rhand -37.6049 -15.4827
rfingers 7.12502
rthumb -10.6582 -45.1923
lclavicle 4.74288e-014 -7.70291e-015
lhumerus 11.7392 -50.7902 92.686
lradius 37.0144
lwrist -5.88564
lhand -25.5205 -33.9353
lfingers 7.12502
lthumb 1.00883 -3.95795
rfemur -43.0757 2.19945 16.6024
rtibia 57.9132
rfoot -12.9672 5.5443
rtoes -7.22874
lfemur -8.3514 7.59174 -4.98027
ltibia 48.5459
lfoot -25.4803 6.81894
ltoes -25.969
152
root 15.9557 15.5816 4.81252 3.54649 -21.4894 3.95717
lowerback 0.69908 -4.59456 -2.83439
upperback 1.90992 -6.11548 -0.473818
thorax 1.81496 -3.09726 1.02216
lowerneck 3.35831 -12.6817 -10.4978
upperneck -7.0847 -17.0109 10.187
head -0.867069 -8.57685 4.70641
rclavicle -1.01427e-013 -2.72087e-015
rhumerus -4.32684 27.7451 -87.7785
rradius 63.4316
rwrist 0.850667
rhand -37.9798 -14.5018
rfingers 7.12502
rthumb -11.0198 -44.1925
lclavicle -1.01427e-013 -2.72087e-015
lhumerus 10.9443 -49.3771 93.8966
lradius 36.8766
lwrist -7.36933
lhand -25.3687 -33.6201
lfingers 7.12502
lthumb 1.15547 -3.6435
rfemur -43.4365 1.11153 16.7263
rtibia 58.6749
rfoot -13.1226 5.84766
rtoes -6.4324
lfemur -7.4123 8.04251 -3.42964
ltibia 48.3781
lfoot -24.6332 6.80639
ltoes -25.1708
153
root 16.0143 15.5403 4.79376 3.48092 -20.7478 3.85421
lowerback 0.696596 -4.56121 -2.74268
upperback 1.82374 -6.07301 -0.419948
thorax 1.72209 -3.07323 1.03222
lowerneck 3.61267 -12.8174 -10.7316
upperneck -7.54791 -17.2014 10.4497
head -0.980911 -8.67806 4.84404
rclavicle 4.02539e-015 -4.53478e-015
rhumerus -4.53864 27.1976 -87.727
rradius 62.5133
rwrist 0.729105
rhand -38.3977 -13.358
rfingers 7.12502
rthumb -11.4229 -43.0268
lclavicle 4.02539e-015 -4.53478e-015
lhumerus 9.96941 -47.9332 95.0504
lradius 36.8094
lwrist -8.77089
lhand -25.1874 -33.2334
lfingers 7.12502
lthumb 1.33054 -3.25782
rfemur -43.7214 0.0402591 16.6993
rtibia 59.2471
rfoot -13.2461 6.13148
rtoes -5.82961
lfemur -6.5413 8.26344 -2.1276
ltibia 48.0723
lfoot -23.5116 6.69818
ltoes -24.0671
154
root 16.0722 15.5118 4.77064 3.37971 -19.9617 3.90181
lowerback 0.682953 -4.55154 -2.89252
upperback 1.75973 -6.0603 -0.407478
thorax 1.68051 -3.06802 1.12904
lowerneck 3.97174 -12.9509 -10.8811
upperneck -8.11429 -17.3871 10.7877
head -1.14093 -8.78365 5.00567
rclavicle 1.17069e-013 2.43511e-015
rhumerus -4.76032 26.5107 -87.7341
rradius 61.3752
rwrist 0.804534
rhand -38.7668 -12.1925
rfingers 7.12502
rthumb -11.7788 -41.8413
lclavicle 1.17069e-013 2.43511e-015
lhumerus 8.8228 -46.4767 96.1524
lradius 36.8228
lwrist -9.99136
lhand -24.9475 -32.8046
lfingers 7.12502
lthumb 1.56232 -2.83053
rfemur -43.8947 -0.980625 16.4903
rtibia 59.5906
rfoot -13.3673 6.30407
rtoes -5.93685
lfemur -5.75459 8.23142 -1.1132
ltibia 47.6178
lfoot -22.0572 6.51495
ltoes -23.0112
155
root 16.1298 15.4971 4.74283 3.25811 -19.1424 4.05883
lowerback 0.674278 -4.57328 -3.2737
upperback 1.71947 -6.0888 -0.393886
thorax 1.68709 -3.0874 1.35134
lowerneck 4.25655 -13.091 -10.851
upperneck -8.60676 -17.5665 11.093
head -1.28537 -8.88946 5.12655
rclavicle 2.7072e-014 2.03754e-015
rhumerus -5.00218 25.7496 -87.7846
rradius 60.0698
rwrist 1.03069
rhand -39.221 -11.1216
rfingers 7.12502
rthumb -12.2168 -40.7448
lclavicle 2.7072e-014 2.03754e-015
lhumerus 7.55342 -44.9834 97.1808
lradius 36.9167
lwrist -10.9186
lhand -24.6784 -32.3969
lfingers 7.12502
lthumb 1.8222 -2.42494
rfemur -43.9401 -1.87977 16.132
rtibia 59.6814
rfoot -13.4632 6.29789
rtoes -6.80897
lfemur -5.0521 7.98292 -0.351557
ltibia 47.0241
lfoot -20.2873 6.2334
ltoes -22.339
156
root 16.1878 15.4967 4.71024 3.16859 -18.3455 4.24
lowerback 0.657984 -4.60805 -3.76796
upperback 1.69214 -6.134 -0.366697
thorax 1.72629 -3.11741 1.64714
lowerneck 4.46722 -13.2457 -10.7853
upperneck -8.9855 -17.7583 11.4022
head -1.38508 -9.00266 5.23241
rclavicle -5.50137e-014 3.47873e-015
rhumerus -5.28893 24.9053 -87.9007
rradius 58.6275
rwrist 1.41782
rhand -39.7376 -10.1934
rfingers 7.12502
rthumb -12.7148 -39.7863
lclavicle -5.50137e-014 3.47873e-015
lhumerus 6.19884 -43.4427 98.1391
lradius 37.0129
lwrist -11.5629
lhand -24.562 -32.0988
lfingers 7.12502
lthumb 1.93458 -2.12784
rfemur -43.8824 -2.56639 15.7102
rtibia 59.5099
rfoot -13.4742 6.07992
rtoes -8.20331
lfemur -4.43421 7.61002 0.246999
ltibia 46.3142
lfoot -18.2726 5.82841
ltoes -22.3984
157
root 16.2503 15.5107 4.67327 3.14243 -17.5975 4.35016
lowerback 0.648489 -4.65326 -4.20639
upperback 1.67203 -6.19361 -0.314027
thorax 1.76784 -3.15428 1.9381
lowerneck 4.57851 -13.4065 -10.7377
upperneck -9.20643 -17.9555 11.7077
head -1.41991 -9.11718 5.32331
rclavicle 7.80603e-014 -6.90777e-015
rhumerus -5.61943 23.9422 -88.0838
rradius 57.0527
rwrist 2.09116
rhand -40.0991 -9.42883
rfingers 7.12502
rthumb -13.0633 -38.9997
lclavicle 7.80603e-014 -6.90777e-015
lhumerus 4.78297 -41.8754 98.9894
lradius 37.1062
lwrist -11.9096
lhand -24.5133 -31.8279
lfingers 7.12502
lthumb 1.98164 -1.85737
rfemur -43.7262 -3.04009 15.3239
rtibia 59.0714
rfoot -13.3606 5.67325
rtoes -10.096
lfemur -3.89706 7.14469 0.768182
ltibia 45.5224
lfoot -16.1098 5.30848
ltoes -23.4382
158
root 16.3197 15.5393 4.63209 3.19524 -16.9399 4.3412
lowerback 0.650544 -4.69382 -4.48621
upperback 1.65276 -6.24827 -0.237758
thorax 1.78979 -3.18638 2.16773
lowerneck 4.62456 -13.5757 -10.8136
upperneck -9.28911 -18.1702 12.0519
head -1.38596 -9.23778 5.42702
rclavicle 4.21361e-014 8.79622e-015
rhumerus -6.00955 22.8936 -88.3446
rradius 55.3696
rwrist 2.79247
rhand -40.3628 -8.76353
rfingers 7.12502
rthumb -13.3175 -38.318
lclavicle 4.21361e-014 8.79622e-015
lhumerus 3.34014 -40.3036 99.7063
lradius 37.1572
lwrist -11.994
lhand -24.667 -31.5775
lfingers 7.12502
lthumb 1.83318 -1.60566
rfemur -43.4893 -3.30899 15.0296
rtibia 58.3693
rfoot -13.102 5.12683
rtoes -12.6466
lfemur -3.4266 6.60903 1.25354
ltibia 44.6773
lfoot -13.9232 4.64658
ltoes -25.2762
159
root 16.3979 15.5835 4.58675 3.32523 -16.3705 4.24613
lowerback 0.662786 -4.72573 -4.56734
upperback 1.62818 -6.29242 -0.17491
thorax 1.77693 -3.20949 2.2771
lowerneck 4.56724 -13.7458 -10.883
upperneck -9.23202 -18.3834 12.3936
head -1.29424 -9.35567 5.51246
rclavicle 3.11843e-015 -6.80837e-015
rhumerus -6.46114 21.712 -88.7
rradius 53.5996
rwrist 3.46304
rhand -40.432 -8.15911
rfingers 7.12502
rthumb -13.3842 -37.7092
lclavicle 3.11843e-015 -6.80837e-015
lhumerus 1.89871 -38.7593 100.261
lradius 37.1088
lwrist -11.8706
lhand -25.0417 -31.3795
lfingers 7.12502
lthumb 1.47127 -1.40482
rfemur -43.1963 -3.41751 14.7857
rtibia 57.4147
rfoot -12.6581 4.56487
rtoes -15.3675
lfemur -3.04 5.97997 1.64932
ltibia 43.8048
lfoot -11.8097 3.84835
ltoes -27.425
160
root 16.4842 15.6436 4.53702 3.49629 -15.8873 4.14113
lowerback 0.696123 -4.75275 -4.51901
upperback 1.60549 -6.3309 -0.152618
thorax 1.73496 -3.22699 2.27681
lowerneck 4.48572 -13.9057 -11.0349
upperneck -9.12728 -18.5869 12.8013
head -1.17022 -9.46828 5.62149
rclavicle -7.20097e-014 1.91827e-014
rhumerus -6.96439 20.4257 -89.1495
rradius 51.7689
rwrist 3.97698
rhand -40.3088 -7.52095
rfingers 7.12502
rthumb -13.2654 -37.0788
lclavicle -7.20097e-014 1.91827e-014
lhumerus 0.489473 -37.2606 100.616
lradius 36.9366
lwrist -11.5749
lhand -25.5685 -31.2378
lfingers 7.12502
lthumb 0.962474 -1.26021
rfemur -42.8445 -3.37382 14.4996
rtibia 56.2299
rfoot -11.9995 4.10521
rtoes -17.4521
lfemur -2.7254 5.21903 1.86109
ltibia 42.9209
lfoot -9.82427 2.96006
ltoes -29.4197
161
root 16.5769 15.7187 4.48277 3.7002 -15.4886 4.10562
lowerback 0.735683 -4.77897 -4.44962
upperback 1.58401 -6.36808 -0.174645
thorax 1.68317 -3.24299 2.22063
lowerneck 4.32587 -14.0585 -11.1304
upperneck -9.0008 -18.7744 13.175
head -1.03688 -9.57075 5.70608
rclavicle 1.22883e-013 -3.08116e-015
rhumerus -7.49921 19.0949 -89.6426
rradius 49.9086
rwrist 4.28221
rhand -40.0234 -6.82958
rfingers 7.12502
rthumb -12.9903 -36.4052
lclavicle 1.22883e-013 -3.08116e-015
lhumerus -0.857224 -35.7888 100.776
lradius 36.6211
lwrist -11.1643
lhand -26.1565 -31.1423
lfingers 7.12502
lthumb 0.394607 -1.16288
rfemur -42.4666 -3.18236 14.0818
rtibia 54.8433
rfoot -11.1184 3.78361
rtoes -18.5139
lfemur -2.50365 4.30075 1.79657
ltibia 42.0435
lfoot -8.00041 2.02742
ltoes -30.9425
162
root 16.6741 15.8071 4.4244 3.95215 -15.1552 4.17964
lowerback 0.749197 -4.80803 -4.444
upperback 1.55887 -6.40736 -0.229267
thorax 1.64561 -3.26082 2.16379
lowerneck 4.14227 -14.2029 -11.1798
upperneck -8.93256 -18.9462 13.4985
head -0.927655 -9.66374 5.77222
rclavicle 7.1373e-014 7.8023e-015
rhumerus -8.05371 17.7832 -90.1234
rradius 48.0589
rwrist 4.35102
rhand -39.6986 -6.21388
rfingers 7.12502
rthumb -12.6772 -35.8091
lclavicle 7.1373e-014 7.8023e-015
lhumerus -2.12931 -34.338 100.762
lradius 36.1609
lwrist -10.6745
lhand -26.6071 -31.0821
lfingers 7.12502
lthumb -0.0405831 -1.10239
rfemur -42.1032 -2.86053 13.4887
rtibia 53.2905
rfoot -10.0228 3.56693
rtoes -18.4708
lfemur -2.41432 3.25857 1.43758
ltibia 41.191
lfoot -6.34415 1.04236
ltoes -31.9849
163
root 16.7751 15.9063 4.36254 4.2488 -14.8791 4.3534
lowerback 0.737532 -4.84098 -4.52484
upperback 1.5326 -6.45043 -0.293847
thorax 1.62975 -3.28199 2.14144
lowerneck 3.86291 -14.3447 -11.0513
upperneck -8.88574 -19.1007 13.6754
head -0.84383 -9.74449 5.76907
rclavicle 2.09722e-014 -7.27894e-015
rhumerus -8.61326 16.525 -90.5452
rradius 46.2406
rwrist 4.27011
rhand -39.3644 -5.88114
rfingers 7.12502
rthumb -12.355 -35.4961
lclavicle 2.09722e-014 -7.27894e-015
lhumerus -3.3219 -32.8968 100.596
lradius 35.5713
lwrist -10.1231
lhand -26.9211 -31.0269
lfingers 7.12502
lthumb -0.343917 -1.04747
rfemur -41.763 -2.41655 12.722
rtibia 51.6096
rfoot -8.73259 3.39373
rtoes -17.4011
lfemur -2.45918 2.141 0.827756
ltibia 40.3878
lfoot -4.86903 -0.0117088
ltoes -32.7461
164
root 16.8802 16.0124 4.29773 4.58933 -14.6705 4.58935
lowerback 0.703256 -4.8667 -4.66287
upperback 1.50501 -6.48268 -0.354024
thorax 1.6314 -3.29883 2.15278
lowerneck 3.52353 -14.49 -10.8126
upperneck -8.87448 -19.2519 13.7362
head -0.784657 -9.82061 5.71698
rclavicle 6.75713e-014 -1.15544e-015
rhumerus -9.18246 15.3454 -90.8823
rradius 44.4734
rwrist 4.05191
rhand -39.1607 -5.78453
rfingers 7.12502
rthumb -12.1586 -35.4112
lclavicle 6.75713e-014 -1.15544e-015
lhumerus -4.42366 -31.3909 100.332
lradius 34.8116
lwrist -9.61866
lhand -27.1485 -30.9695
lfingers 7.12502
lthumb -0.563525 -0.990496
rfemur -41.4601 -1.83727 11.8181
rtibia 49.8453
rfoot -7.2796 3.15323
rtoes -15.8032
lfemur -2.62106 0.995968 0.0428754
ltibia 39.6575
lfoot -3.59692 -1.13632
ltoes -33.3533
